<mxfile host="65bd71144e">
    <diagram id="HAMG2wNBRuwxXcFWBGmL" name="Page-1">
        <mxGraphModel dx="1085" dy="600" grid="1" gridSize="10" guides="1" tooltips="1" connect="1" arrows="1" fold="1" page="1" pageScale="1" pageWidth="850" pageHeight="1100" math="0" shadow="0">
            <root>
                <mxCell id="0"/>
                <mxCell id="1" parent="0"/>
                <mxCell id="2" value="" style="shape=image;verticalLabelPosition=bottom;labelBackgroundColor=default;verticalAlign=top;aspect=fixed;imageAspect=0;image=data:image/png,iVBORw0KGgoAAAANSUhEUgAAAvAAAAJGCAYAAAA9NbESAAAgAElEQVR4nOzce3zP9f//8fv7sPdC2IHsgzGlmcjIoYgRKoWccyiHfMYKIUkpUR+JHFKTnM+HGbZCIadqMqfJ5piZY07DZA7D7L337w+f3p/e3/q148f785rb9XJx4f16vh7P1+P12v647+m5l8nPP8ghAAAAAIZgdncDAAAAALKPAA8AAAAYCAEeAAAAMBACPAAAAGAgBHgAAADAQAjwAAAAgIEQ4AEAAAADIcADAAAABkKABwAAAAyEAA8AAAAYCAEeAAAAMBACPAAAAGAgBHgAAADAQAjwAAAAgIEQ4AEAAAADyXOAt1qtilw0Sz7eXvnRDwqYzh3bKaxXD3e3AQAAUGBY8zqB2WxSSIN6stls+dEPCpgKAeXk4+Pt7jYAAAAKDLbQAAAAAAZi8vMPcuSmcPCgfhrQL0wmk0kWi0V2u10Oh0MRkdEaMnSEunRqr1Ejh7nUdO/ZRzGbYyVJO2M3qkRJX+fY7vg9atuhmyTlqfbBCgHauO5rl9op02Zr7PhwSVL4xDFq2aKZy3ilKrWVnn7bkLVZPQ93fB3MZrNOJCVIkiwWiyTJbrdLkmrXbaJzyecFAACA3Ml1gPf19ZGvr488bTatWx2lDp1f0fkLF5Wamqrk5Av53ScMJjCwoiQpLLS7ihcvprETJkmSjhw55gzzAAAAyLlc74FPSbmklJRLstk8JElJSUdZWYVTYmKSpDvfJw6Hw/kZAAAAecMeeAAAAMBAcr2FBgAAAMDdxwo8AAAAYCAEeAAAAMBACPAAAACAgRDgAQAAAAMhwAMAAAAGQoAHAAAADIQADwAAABgIAR4AAAAwEAI8AAAAYCAEeAAAAMBACPAAAACAgeRLgE+Ii8lxzWM1gvXV8gU68ssu/bB+pdq2buEyXrx4Mb05sG9+tPcnVatU1ovtW+e4ztvLS1O/mKBD+3YoNmat2rd9IcdzvPv2Gxo7+sMc1xlVaM+u6vtaqLvbAAAAKDDcsgJftOj9WrJwplauWqvgWiF69/2P9PHI9/VUw/rOc7y8imvwoH7/les/WvURdezQJsd1kyeN0630dDV5trWGDP1Aw997SyEN6uVojgWLl2rajDk5vjYAAAAguSnAVwgoL09PT81bEKFr164rdtsOjR47UaVKPSBJWrNqqb5dESnpzup+QlyMBrwe5qyvU/sxrVm1VIn7d2r9mmg9We9xl/kHvB6mieNH6Z23Bipx/079sne7rFar/uFXSglxMfpw+DuqVbOGc+56detk2XPgww+p1mPVNWToCJ06fUY/bdmm8MnTFfpKV0lS547tFLlo1n/OD6yoY4fjnZ+jIufp7MmD2rFlgwb2f81l7td6v6Jjh+Odf04d26cDe7bm8KkCAADgXmB1x0UPHDykpCNHNXHcKI2f+IV+PXVa8xYscY4/1/JFlS/vr22b1ym4VohLraenTfNnT9HAN9/Vd+s36eUuHTR9ymeqWr2eHA6H87w2rVpo5uz5erHzK/KweSgjI0NnzyUruFaIOndsp/ZtX1C7jt2z3XNwtarau++Abt1Kdx7bHb9X/V7rla369p16yGQyadDAPipfzt9lbMr0OZoy/c6qvI+3l9av/UqTJs/Idm8AAAC4d7hlBT4jI0NtOnRVym+/ac2qpVoRtUgN6tfNVm1mpkMvtHtJa9dtlMPhUERktHy8vfQPv1Iu58Xt2q2PRk9Q/J592hm3O889FylSRGlpaS7Hrl2/rvvvL5KteofDoczMTDkyHf/fc0wmkyZPGq/tO3Zp7vzFeeoXAAAABZPb3kJz5cpV/eujsQquFaKZcxZo+pSJqv/kE1nW3b59W+XLldXyJXO1ad0KrVm1VJJkNrveyoWLF/O137S0NBUqVMjlWJHChXXt2vV8u8agAX1U2q+U3hzyfr7NCQAAgILFLQG+aZNGzjfM2O12rfpmrb5euVqtX3jeeU5mZqakO6vSf+TvX0aTPx+n4R+OVuNnWunp59rm+PqZjkyZLTm79YS9+/Vo1Udks3k4j1UPrqqEPfskSdfT0mTztOW4l9+FNKinsF49FPrqAN24cSPX8wAAAKBgc0uAP3HipF7t/YratWmp+zw9FfjwQwqpX1dHjx53npOcfF7p6bfVpHFDeXh4yNfXR5Lk6+Mjh8Oh8xfurLC3a9NSknIUyH89eVqVAivKv2wZFSpUSMWKFc2y5tChw0rYs0+jPxquEiV8VatmdfXvG6YZs+dLkg4c+EVBlR6Wj7eXJKlNq+Yu9SaTSWazWSbznb9//yNJfqUe0Jfh4/TW0BE6nHQ02/cBAACAe49bAvzhpKN6qXtvdXu5k/YnxGrxghlaHrVSX06b7TwnPf223n1/pMInjtbhA3F6499vbolP2KvZ8xZpw5qvtGPLBtV8LFhXr16Tf9ky2b5+7LYdWr1mvX7c9I127/hBTZ4KybpI0qt9B6lYsWLaGvOdlkbM0ZWrV7U7fo8kKenIMU2dPkfr136l775drrQ011X05Uvm6vTx/XpzYF+1bd1Cp4/v17cr77xpp+vLHeXr66MJn4xU0sFdzj8PVgjI9j0BAADg3mDy8w/6//9WZTYlxMX86W0xBd19np76Inys/MuW0fMvdJTdbnd3S/+TQnt2laenpyZPmenuVgAAAAoEt7xGsiC4eeuWer06UFWrVCa8AwAA4K5x21toCgKHw6G9+w64uw0AAADcQ/JlCw0AAACAu4MVeAAAAMBACPAAAACAgRDgAQAAAAMhwAMAAAAGQoAHAAAADIQADwAAABgIAR4AAAAwEAI8AAAAYCB5DvBWq1WRi2bJx9srP/pBAdO5YzuF9erh7jYAAAAKDGteJzCbTQppUE82my0/+kEBUyGgnHx8vN3dBgAAQIHBFhoAAADAQEx+/kGO3BQOHtRPA/qFyWQyyWKxyG63y+FwKCIyWkOGjlCXTu01auQwl5ruPfsoZnOsJGln7EaVKOnrHNsdv0dtO3STpDzVPlghQBvXfe1SO2XabI0dHy5JCp84Ri1bNHMZr1SlttLTbxuyNqvn4Y6vg9ls1omkBEmSxWKRJNntdklS7bpNdC75vAAAAJA7uQ7wvr4+8vX1kafNpnWro9Sh8ys6f+GiUlNTlZx8Ib/7hMEEBlaUJIWFdlfx4sU0dsIkSdKRI8ecYR4AAAA5l+s98Ckpl5SSckk2m4ckKSnpKCurcEpMTJJ05/vE4XA4PwMAACBv2AMPAAAAGEiut9AAAAAAuPtYgQcAAAAMhAAPAAAAGAgBHgAAADAQAjwAAABgIAR4AAAAwEAI8AAAAICBEOABAAAAAyHAAwAAAAZCgAcAAAAMhAAPAAAAGAgBHgAAADAQAjwAAABgIAT4XJg9Y5JqVK/m7jYAAABwDyLAAwAAAAZCgAcAAAAMhAAPAAAAGAgBHgAAADAQAjwAAABgIAR4AAAAwEAI8AAAAICBEOABAAAAAyHAAwAAAAZCgAcAAAAMhAAPAAAAGIjJzz/I4e4mAAAAAGQPK/AAAACAgRDgAQAAAAMhwAMAAAAGQoAHAAAADIQADwAAABgIAR4AAAAwEAI8AAAAYCAEeAAAAMBACPAAAACAgRDgs6l68KPan7BVVqvVeax3aHctnDvVjV0BAADgXkOAz6b4hL1KTj6vpxrVdx5r06q5IiKj3dgVAAAA7jUE+BxYFLFMHdq2kiQFlC8n/7Jl9N36TW7uCgAAAPcSAnwOREWvUsOQJ1W06P1q06q5lkWvUEZGhrvbAgAAwD2EAJ8Dl1NTtfH7GLV4/lm1ZvsMAAAA3IAAn0OLIpapf7/eunr1qhITk9zdDgAAAO4xBPgc2hK7XZK0eEmUmzsBAADAvcjk5x/kcHcTAAAAALKHFXgAAADAQAjwAAAAgIEQ4AEAAAADIcADAAAABkKABwAAAAyEAA8AAAAYCAEeAAAAMBACPAAAAGAgBHgAAADAQAjwAAAAgIEQ4AEAAAADyXOAt1qtilw0Sz7eXvnRDwqYzh3bKaxXD3e3AQAAUGBY8zqB2WxSSIN6stls+dEPCpgKAeXk4+Pt7jYAAAAKDLbQAAAAAAZi8vMPcuSmcPCgfhrQL0wmk0kWi0V2u10Oh0MRkdEaMnSEunRqr1Ejh7nUdO/ZRzGbYyVJO2M3qkRJX+fY7vg9atuhmyTlqfbBCgHauO5rl9op02Zr7PhwSVL4xDFq2aKZy3ilKrWVnn7bkLVZPQ93fB3MZrNOJCVIkiwWiyTJbrdLkmrXbaJzyecFAACA3Ml1gPf19ZGvr488bTatWx2lDp1f0fkLF5Wamqrk5Av53ScMJjCwoiQpLLS7ihcvprETJkmSjhw55gzzAAAAyLlc74FPSbmklJRLstk8JElJSUdZWYVTYmKSpDvfJw6Hw/kZAAAAecMeeAAAAMBAcr2FBgAAAMDdxwo8AAAAYCAEeAAAAMBACPAAAACAgRDgAQAAAAMhwAMAAAAGQoAHAAAADIQADwAAABgIAR4AAAAwEAI8AAAAYCAEeAAAAMBA7rkAHxU5T2dPHtTZkwc16bNP3N0OAAAAkCP5EuAT4mJydH6Txg115sQBHT+coL0//6RPx30kH2+vP53XuFEDbf5+dX606NTxpX+qfMVqmhg+JV/nzYq3l5emfjFBh/btUGzMWrVv+8Jdu3bx4sX05sC+f3vOqq8i1KZV83y/dmjPrur7Wmi+zwsAAHCvctsK/PETJxXwcLAaNW2ptLQbWhG9WIXuu8/lnB1xP+uNwe/m63UzMjKUnn5b9gx7vs6blcmTxulWerqaPNtaQ4Z+oOHvvaWQBvXuyrW9vIpr8KB+f3vO+x98rO9/+Omu9AMAAIDcc/sWmpRLv2nYiFG6du2aOnZoI0l6c2BfnT15UIcPxGnalxP/VFM5KFDRS+cr6eAu/fTDGnVo18o5Ftqzq5Yunq3opfN17HC8VkYvVtkypbPdz8tdXtTWzd/p0L4dWjR/urO2Q7tW2rFlg0wmk/Pctq1baGfsRpdjfyXw4YdU67HqGjJ0hE6dPqOftmxT+OTpCn2lqySpc8d2ilw06z/nB1bUscPxzs+F7rtPH48cpn27tyh+Z4w6d2yX7eexZtVSfbsiUtKd/ylJiIvRgNfDnOO/bydas2qpnmvW1GVes9msd94aqIN7t+mXvds1fNgQWa1WSdIjlStp2+Z1CuvVQ/t2b9Hen39S966dsn7AAAAAyBO3B/jfrVv/vWrXfkySNOGzySoTUEXtO/X4y3Mnh4/T+g3fq1LVOnpj8Lv6ZPQHKl/e3zn+SOVKGvGvMar1+FM6e/acJo4fla0eHqsRrKFvv6FOL4eqWs36ungxRR+OeEeStGLVahUuUlgN/7Bq3qF9ay1YHCmHw/G38wZXq6q9+w7o1q1057Hd8XtV7dEq2errwxFDVaFCgOo1bKYu3XrpvXcGqVbN6s7xv3sez7V8Uc1bdbzTR60QBdcK0eeTpjlrywRUUZmAKtq6beefrvtaWE81alhfTzV9QQ2bttDjtR9T/769nePlypW989web6SwvoP0rxHvqkQJ32zdEwAAAHLnfybAX069Ii+v4s7PmZmZyrRn/uW5N2/elLe3l+6/v4h2xu1WvQbP6ty5ZOf4z7v3aO++A0q59JtGfjxe9Z98QkWKFM6yhyNHj6lZi/Y6ceJX3bqVrqivVqlK5SBJUnr6bS2OWKaXurwoSfIr9YCeeLyWIiKjs5y3SJEiSktLczl27fp13X9/kSxrPTw81LljWw3/4GNduXJVBw4eUuTyr9X6hf/sV8/qefydzMxMZWZm/uUPIS91bq9xE8J1Lvm8kpMv6ONPJrqs/t+4cUPTZsxVevptxW7doQsXLyqw4kPZui4AAABy538mwHsVL6bffrucrXN79npdPj7e2rzpW61eGak6dWq6rG7/0anTZ2S32/VAyZJZzpuaekUtnntGa1Yt1aZ1KzRm1HCZzf95RPMXRqppk4by9fVR2zYttW7dJl24cDHLedPS0lSoUCGXY0UKF9a1a9ezrC1bprSsVquiIuc5t8B0e6mjSpf2c56Tk+eRE2VKl9bJX085Px8/flKlS/s5twz938yfnp4um80jz9cFAADA/5/V3Q38rvFTIYqKXpnleTabhx54oKQGvz1ckvR4nZqaN+tLnTx5SvEJe/90/j/8SslisejCxayDdod2rdSmdQt17tpLKSmXVPfx2vr809HO8VOnz+iHH39Sx/at1bF9aw19f2S27i1h736N/OBd2WweSk+/LUmqHlxVCXv2SZKup6XJ5mn7y9pzyeeVmZmpDl16KiXlkvN4enp6tp9HZuad/8kwmUxZbvf5ozNnz6psmdI6nHRUklTOv6zOnD2XozkAAACQv9y+Al+sWFENHzZE3t5eilz2lfO42WyW2WKWyWS68+9/r4SbTWYti5jj3EJy5uw53bx5S1arxVlbtWplBZQvp0KFCmno229o809bnavdv89nMv9n3t/nLlmyhK5dv67U1Cvy9LTphZbNZLa4PqI58xarz6v/lNliUezWHdm6x0OHDithzz6N/mi4SpTwVa2a1dW/b5hmzJ4vSTpw4BcFVXrY+SrNP77O8caNG1r5zRq9OaCPMm5nKC3thtq1aaka1atl+3kkJ59XevptNWncUB4eHvL19XF9zuY7z9lisTj/LUkRkVEaPKiffH195OPtpbcGv66ly7/O1j0DAADgv8NtAT6gfDklHdylLT+skY+Xl1q3f1k3bt6UdOctNKeP79fyJXP1D79SOn18v04f369ChQrp5q1berlHmP75yss6tG+HopfO17QZcxS36z9vbbl06Td9/ulo7f35J5UtU1pvDH7PObZ8yVydPr5fbw7sq7atW+j08f36duWdt7TMWxCh3367rF3bNmnD2q/lcDhUskQJef5hdTxmc6yuXrum+QuX5Oh+X+07SMWKFdPWmO+0NGKOrly9qt3xeyRJSUeOaer0OVq/9it99+1ypaXdcKkd/PZwpV65ophN32j3jh8UXK2qEhLurN5n53mkp9/Wu++PVPjE0Tp8IE5v9H/NOfb7s637RG2NG/OhTh/fr2HvDpYkTZ4yS1u37dSGtV9p07qV2rv3gD4Ln5qj+wYAAED+Mvn5B+V5P0RCXIyCa4XkRz95Ftqzq0Lq11O3nq9lfXIu+Pp4K+b71aoX8qxSU6/kao77PD31RfhY+Zcto+df6Ci7/e6+k/5uCu3ZVZ6enpo8Zaa7WwEAACgQ/mf2wBvB/fcX0cgP39PKVatzHd6lO6vmvV4dqKpVKhfo8A4AAID85/Y98Ebh4eGh+J0xKlasqEaN+TTP8zkcDu3ddyAfOgMAAMC9JF+20AAAAAC4O1iBBwAAAAyEAA8AAAAYCAEeAAAAMBACPAAAAGAgBHgAAADAQAjwAAAAgIEQ4AEAAAADIcADAAAABpLnAG+1WhW5aJZ8vL3yox8UMJ07tlNYrx7ubgMAAKDAsOZ1ArPZpJAG9WSz2fKjHxQwFQLKycfH291tAAAAFBhsoQEAAAAMxOTnH+TITeHgQf00oF+YTCaTLBaL7Ha7HA6HIiKjNWToCHXp1F6jRg5zqenes49iNsdKknbGblSJkr7Osd3xe9S2QzdJylPtgxUCtHHd1y61U6bN1tjx4ZKk8Ilj1LJFM5fxSlVqKz39tiFrs3oe7vg6mM1mnUhKkCRZLBZJkt1ulyTVrttE55LPCwAAALmT6wDv6+sjX18fedpsWrc6Sh06v6LzFy4qNTVVyckX8rtPGExgYEVJUlhodxUvXkxjJ0ySJB05cswZ5gEAAJBzud4Dn5JySSkpl2SzeUiSkpKOsrIKp8TEJEl3vk8cDofzMwAAAPKGPfAAAACAgeR6Cw0AAACAu48VeAAAAMBACPAAAACAgRDgAQAAAAMhwAMAAAAGQoAHAAAADIQADwAAABgIAR4AAAAwEAI8AAAAYCAEeAAAAMBACPAAAACAgRDgAQAAAAMhwOfC7BmTVKN6NXe3AQAAgHsQAR4AAAAwEAI8AAAAYCAEeAAAAMBACPAAAACAgRDgAQAAAAMhwAMAAAAGQoAHAAAADIQADwAAABgIAR4AAAAwEAI8AAAAYCAEeAAAAMBATH7+QQ53NwEAAAAge1iBBwAAAAyEAA8AAAAYCAEeAAAAMBACPAAAAGAgBHgAAADAQAjwAAAAgIEQ4AEAAAADIcADAAAABkKABwAAAAyEAJ9N1YMf1f6ErbJarc5jvUO7a+HcqW7sCgAAAPcaAnw2xSfsVXLyeT3VqL7zWJtWzRURGe3GrgAAAHCvIcDnwKKIZerQtpUkKaB8OfmXLaPv1m9yc1cAAAC4lxDgcyAqepUahjypokXvV5tWzbUseoUyMjLc3RYAAADuIQT4HLicmqqN38eoxfPPqjXbZwAAAOAGBPgcWhSxTP379dbVq1eVmJjk7nYAAABwjyHA59CW2O2SpMVLotzcCQAAAO5FJj//IIe7mwAAAACQPazAAwAAAAZCgAcAAAAMhAAPAAAAGAgBHgAAADAQAjwAAABgIAR4AAAAwEAI8AAAAICBEOABAAAAAyHAAwAAAAZCgAcAAAAMhAAPAAAAGEieA7zValXkolny8fbKj35QwHTu2E5hvXq4uw0AAIACw5rXCcxmk0Ia1JPNZsuPflDAVAgoJx8fb3e3AQAAUGCwhQYAAAAwEJOff5AjN4WDB/XTgH5hMplMslgsstvtcjgcioiM1pChI9SlU3uNGjnMpaZ7zz6K2RwrSdoZu1ElSvo6x3bH71HbDt0kKU+1D1YI0MZ1X7vUTpk2W2PHh0uSwieOUcsWzVzGK1WprfT024aszep5uOPrYDabdSIpQZJksVgkSXa7XZJUu24TnUs+LwAAAOROrgO8r6+PfH195Gmzad3qKHXo/IrOX7io1NRUJSdfyO8+YTCBgRUlSWGh3VW8eDGNnTBJknTkyDFnmAcAAEDO5XoPfErKJaWkXJLN5iFJSko6ysoqnBITkyTd+T5xOBzOzwAAAMgb9sADAAAABpLrLTQAAAAA7j5W4AEAAAADIcADAAAABkKABwAAAAyEAA8AAAAYCAEeAAAAMBACPAAAAGAgBHgAAADAQAjwAAAAgIEQ4AEAAAADIcADAAAABkKABwAAAAzEcAE+MLCikg7ucncbAAAAgFvkS4BPiIvJcc1jNYL11fIFOvLLLv2wfqXatm6RH61k27tvv6Gxoz/8y7Heod1VtkzpXM3buFEDJR3cJU9PW17aKzBCe3ZV39dC3d0GAABAgeGWFfiiRe/XkoUztXLVWgXXCtG773+kj0e+r6ca1r9rPSxYvFTTZsz5y7GwXj3kX7ZMruZ9rllT2e12NahfLy/tAQAAAH/JLQG+QkB5eXp6at6CCF27dl2x23Zo9NiJKlXqAUnSpM8+0YDXw5zn9+jWRYvmT3d+NptNGjNqhJIO7tK2zev0dNNGzrF98bGaMfVz7YuP1azp4fp+/UrFxqxVmdL/kCRFRc7T2ZMHtWPLBg3s/5pLX/8aMVQJcTHyK/WAZs0IV0JcjBbOnZrt+zKZTGr8VIhGfjxezzdr6jL2y97t6tyxnTZ/v1qHD8Tp03EfyWQyOcdbPP+MftywSkkHd2nVVxGqHvyoJGncmA/V8cU2kqRZ08OdP+SsXhmp4GpVJElly5TWwrlTdfhAnH5Yv1I1qldzuXbkolnq0a2LZs+YpGOH47Vw3rRs3xMAAAD+t7glwB84eEhJR45q4rhRzpXueQuWaMnS6GzVFypUSAd/OaSq1evp8y+maeoXE+Tr4+0c/+LL6RryzghVfaSyGj/TSnv27Ndz/w7U7Tv1UJmAKprw2eQ/zTv8w9EKrhWic8nn9c9e/RVcK0Qv93g12/f1eO2a2rv3gKKiV6rBk3VlNrs+3vpPPqEWrTvpqadfUIP6dfXcs3d68vX10eTw8Ro05H1VqlpHq75dqxlTP5Mk7dm7X5UrBUqSalSvpjp1akqSypcvp4O/JMpqtWrB3Knau/+gqtaop0/Dp2jR/GkqXLiwy7WHDH5dGzb+qBfadNGo0ROyfU8AAAD43+KWAJ+RkaE2Hboq5bfftGbVUq2IWqQG9etmuz4tLU3zFizRzVu3FBEZpZO/nlbdJ2o7x69du64rV6/qytWrcjgcupx6RUWK3Am0DodDmZmZcmQ68v2+nn/uaX29crVu3Lypn3cn6PHaNV3Gp8+cq9TUKzp1+oy2btupRypXkiRl2jOVkXFbfqUekMVi1szZC9SmfVdJUsKe/aocFKiKD1XQL4cO6/HaNVX6H3769dfTSk+/rTq1H5OPt5fGjg/XrVvpWrlqjU6cPKVGIU+6XHvmrAVavGS59u47oIO/JOb7vQMAAODucNtbaK5cuap/fTRWwbVCNHPOAk2fMlH1n3wiW7WO/5O9T506rRIlSvwXusyZ55o11ZhRw7UvPlZPN23kXPX/3R/7Tk9Pl83mIUn67fJlte/0ijp2aKP4uBjNnTlZvr53/kfh4C+JeuihCnq8Ti1t3PSjiha9X1WrVlbCnn2S7mxH8vb2UvzOH5UQF6OEuBhVrhSo0qX9XK594eLF/+KdAwAA4G6xuuOiTZs0UvCjd7ax2O12rfpmrerVraPWLzyvn7Zs0/XrabLZsv8WlxIlSyjl0qV86y8zM1NmS85+tqn2aBWdOn1Gr/V9U5JUrHgxLZwzVcM/HJ1lrY+3l1JTr6hbz9dks3moY4c2Wrp4jqrWeFK3b9/WxYuX9OzTjTV2QriCKj2stq1aKOanrZKks2fP6eSvp9W6/csuc16/dj1H/QMAAMAY3LICf+LESb3a+xW1a9NS93l6KvDhhxRSv66OHj0uSdp/4KDqPl5bZrNZhQoVUrNnGrvUFy5cSE0aN5Qk1atbRw9VCNDmzVuzdW2TySSz2SyT+c7fv//5o19/Pa2nGtaX1WpVqVIlszXv882e1ubNW3Uu+bzOJZ9XYkrLsR4AACAASURBVGKSbty4oUerPpJl7YMPBmjV1xEKqvSw0tNv6+Svp2W1Wpzje/buV/Xgqjpw8JC2bY9T0yaNnCvwW7ftlNVi0YvtWunKlSsymUzq91qofP7wOwEAAAAoONwS4A8nHdVL3Xur28udtD8hVosXzNDyqJX6ctpsSVLksq90MeWStv+0XpGLZunA/9mzfenSb2rbuoW2bV6nT8d+pD7939Ll1NRsXXv5krk6fXy/3hzYV21bt9Dp4/v17cpIl3NGfjxezZ9/RscSd2v+7CnZmvf5557W1m07XY5t3R73p200fyVuV7w++ni8Zk4L1+EDcRr+3lsKDRug27dvS5IS9uzTnn0HlJmZqW3b42S1WnUoMUmSdOPmTXV6OVT169fVnl0/acOaaF1PS9OZs+ey1TcAAACMxeTnH5Tn3+ZMiItRcK2Q/OgHBUxoz67y9PTU5Ckz3d0KAABAgeC2X2IFAAAAkHMEeAAAAMBA8mULDQAAAIC7gxV4AAAAwEAI8AAAAICBEOABAAAAAyHAAwAAAAZCgAcAAAAMhAAPAAAAGAgBHgAAADAQAjwAAABgIHkO8FarVZGLZsnH2ys/+kEB07ljO4X16uHuNgAAAAoMa14nMJtNCmlQTzabLT/6QQFTIaCcfHy83d0GAABAgcEWGgAAAMBATH7+QY7cFA4e1E8D+oXJZDLJYrHIbrfL4XAoIjJaQ4aOUJdO7TVq5DCXmu49+yhmc6wkaWfsRpUo6esc2x2/R207dJOkPNU+WCFAG9d97VI7ZdpsjR0fLkkKnzhGLVs0cxmvVKW20tNvG7I2q+fhjq+D2WzWiaQESZLFYpEk2e12SVLtuk10Lvm8AAAAkDu5DvC+vj7y9fWRp82mdauj1KHzKzp/4aJSU1OVnHwhv/uEwQQGVpQkhYV2V/HixTR2wiRJ0pEjx5xhHgAAADmX6z3wKSmXlJJySTabhyQpKekoK6twSkxMknTn+8ThcDg/AwAAIG/YAw8AAAAYSK630AAAAAC4+1iBBwAAAAyEAA8AAAAYCAEeAAAAMBACPAAAAGAgBHgAAADAQAjwAAAAgIEQ4AEAAAADIcADAAAABkKABwAAAAyEAA8AAAAYCAEeAAAAMBACfC7MnjFJNapXc3cbAAAAuAcR4AEAAAADIcADAAAABkKABwAAAAyEAA8AAAAYCAEeAAAAMBACPAAAAGAgBHgAAADAQAjwAAAAgIEQ4AEAAAADIcADAAAABkKABwAAAAzE5Ocf5HB3EwAAAACyhxV4AAAAwEAI8AAAAICBEOABAAAAAyHAAwAAAAZCgAcAAAAMhAAPAAAAGAgBHgAAADAQAjwAAABgIAR4AAAAwEAI8NlUPfhR7U/YKqvV6jzWO7S7Fs6d6sauAAAAcK8hwGdTfMJeJSef11ON6juPtWnVXBGR0W7sCgAAAPcaAnwOLIpYpg5tW0mSAsqXk3/ZMvpu/SY3dwUAAIB7CQE+B6KiV6lhyJMqWvR+tWnVXMuiVygjI8PdbQEAAOAeQoDPgcupqdr4fYxaPP+sWrN9BgAAAG5AgM+hRRHL1L9fb129elWJiUnubgcAAAD3GAJ8Dm2J3S5JWrwkys2dAAAA4F5k8vMPcri7CQAAAADZwwo8AAAAYCAEeAAAAMBACPAAAACAgRDgAQAAAAMhwAMAAAAGQoAHAAAADIQADwAAABgIAR4AAAAwEAI8AAAAYCAEeAAAAMBACPAAAACAgeQ5wFutVkUumiUfb6/86AcFTOeO7RTWq4e72wAAACgwrHmdwGw2KaRBPdlstvzoBwVMhYBy8vHxdncbAAAABQZbaAAAAAADMfn5BzlyUzh4UD8N6Bcmk8kki8Uiu90uh8OhiMhoDRk6Ql06tdeokcNcarr37KOYzbGSpJ2xG1WipK9zbHf8HrXt0E2S8lT7YIUAbVz3tUvtlGmzNXZ8uCQpfOIYtWzRzGW8UpXaSk+/bcjarJ6HO74OZrNZJ5ISJEkWi0WSZLfbJUm16zbRueTzAgAAQO7kOsD7+vrI19dHnjab1q2OUofOr+j8hYtKTU1VcvKF/O4TBhMYWFGSFBbaXcWLF9PYCZMkSUeOHHOGeQAAAORcrvfAp6RcUkrKJdlsHpKkpKSjrKzCKTExSdKd7xOHw+H8DAAAgLxhDzwAAABgILneQgMAAADg7mMFHgAAADAQAjwAAABgIAR4AAAAwEAI8AAAAICBEOABAAAAAyHAAwAAAAZCgAcAAAAMhAAPAAAAGAgBHgAAADAQAjwAAABgIP+TAX72jEl6tdcr/5W598XHqkb1av+VuQEAAID/tnwJ8AlxMTmuqfJIkFZELVLSwV3atG6Fmj3TJD9auStWr4zUgNfD3N2GIYT27Kq+r4W6uw0AAIACwy0r8EWKFNaiedO1eMlyBT36uIYNH6XwiWMUGFjRHe3kyD/8SunBCgF67tmn3d0KAAAA7kFuCfAvtHhOx06cUOSyr5SRkaHYbTs0f+ESPVGnpvOcf/yjlJZFzNHRQz8retl8+ZV6wDlWtkxpLZw7VYcPxOmH9Sv/tCWmYciT+umHNUo6uEuRi2ap4kMV/rqPls8pfmeMAsqXy3bvzZ5tqoWLl+o+T5vKlP6H83hoz676ctJ4fTb+YyUd3KXN369WndqPOceLFSuqLyeN14E9W5UQF6Phw4bIZDKpVKmS2rl1oySpclCgvl2xRJLUuFEDLZgzRZJU6L779PHIYdq3e4vid8aoc8d2Lj3VrlVDWzd/p5bNn1Xctk06fjjB5doAAAAoONwS4IMqPax9+w66HPto9ATNXxjp/Fyvbh29/e6HqlazgdKup6l/v96SJKvVqgVzp2rv/oOqWqOePg2fokXzp6lw4cKSpPLl/TVjymca/sHHeiT4Cf24OVYzpn7+px6aNmmk0R8N18s9wnT8xMls9978uaf19crVWvXtd2r2rOu2n6aNG2r5VytVudoTWh69QmNGjXCODXmzvzw8PFTz8cZ6ruWLatq4oV7s0FrJyRfkYfVQ0aL36/E6tVQ5KFCF7rtPgQ9XVMKe/ZKkD0cMVYUKAarXsJm6dOul994ZpFo1q7tcu2yZ0urQrrX69n9L7Tp214GDh7J9TwAAADAOtwR4T09Ppd++/bfnREWv0tFjx3Xt2nVFf/2NHqkcJEmqU/sx+Xh7aez4cN26la6Vq9boxMlTahTypCSpXeuW2rDpR236YbPS029r2oy5Wh69Ular1Tl33Sdqa/LnYxXau7/27T/4l9f/K95eXipZsoT27T+oVd+u1fPNXLfRbN8Rp5+2bNPt27f11YpvFfjwQzKb7zzimzdvqnDhQirh66MzZ8+pVduXtGbtBknSnr37FVTpYT1Rp6a2bo9TjerVFBj4kOL37JOHh4c6d2yr4R98rCtXrurAwUOKXP61Wr/Q3OXa6enpCuvzhrbv2KVdP8fr2rXr2b4vAAAAGIc161PyX3p6umweHtk+/9atdHne5ylJqhBQXt7eXorf+aNzvHjx4ipd2k+SVLq0n06dOu0cs9vtmjxlpst8bw8eoIyM27J52nLU9zPPPKWA8uW0Lz5WkuRVvJh8vL106bfLkiSH4w/3eCtdFotFVqtF6emZGjshXK/36a0li2bKZDJpedRKff7FNEl3AnzloEAFBlZU+BfTVaf2Ywp8+CGNGfe5ypYpLavVqqjIeXL8+wKFCxfW5i1bXXq7du26bty8maP7AQAAgPG4JcD/cuiw2rd7weXYmwP76vSZs1qyNPpva8+ePaeTv55W6/Yvuxy//u8V57Nnk1WhQnmXsfpPPqHYrTuUmZkpSXrnvQ+V6cjU5PBxerpZG509l5ytvps3e0Zhfd5QfMJeSdJbb76up59+SpFLv8qy9qEHK2jK9Dma8NlkBZQvpylfjNfNW7f05dRZit+zT91e6qiTJ09p6/Yd6tC+lYoWLarz5y+oUKFCyszMVIcuPZWScsk5X3p6erZ6BgAAQMHili00K79Zo4cfelDt2rSUyWRSjerV9M+eL+vn+D1Z1m7dtlNWi0UvtmulK1euyGQyqd9rofLx8ZYkRX/9jZ5u0kj1nqgjk8mkri+9qNEfDXeGd+nODxCRS7/Spu9jNO3LibJYLFlet0iRwqpT+zFt+iFG55LP61zyef3w4096PptvoxkxbIjee2eQbDYPXUxJ0eXUK7Ja71x3z979atCgrrZtj1Ny8gWVeqCkjh47Lkm6ceOGVn6zRm8O6KOM2xlKS7uhdm1a8i57AACAe5RbAvy1a9fVuWsvde/aWYn7d+rTcR+p/xtDlZiYlGXtjZs31enlUNWvX1d7dv2kDWuidT0tTWfOnpMkHTt+Qq/2HaQJ40Yqcf9ONX/uGXXv2ecv53r73Q/l5VVcw959M8vrNmncUPsP/KL09P/s3d+2Y5dCQuqpUKFCWdYPfPNdlSpVUj/v+FHbt2zQ2bPnNH3GPEnS+fMXdPlyqrbtiJMk7d13QHv+/QuskjT47eFKvXJFMZu+0e4dPyi4WlUlJOzL8poAAAAoeEx+/kGOrE/7ewlxMQquFZIf/aCACe3ZVZ6enn/6PQQAAADkjltW4AEAAADkDgEeAAAAMJB82UIDAAAA4O5gBR4AAAAwEAI8AAAAYCAEeAAAAMBACPAAAACAgRDgAQAAAAMhwAMAAAAGQoAHAAAADIQADwAAABhIngO81WpV5KJZ8vH2yo9+UMB07thOYb16uLsNAACAAsOa1wnMZpNCGtSTzWbLj35QwFQIKCcfH293twEAAFBgsIUGAAAAMBCTn3+QIzeFgwf104B+YTKZTLJYLLLb7XI4HIqIjNaQoSPUpVN7jRo5zKWme88+itkcK0naGbtRJUr6Osd2x+9R2w7dJClPtQ9WCNDGdV+71E6ZNltjx4dLksInjlHLFs1cxitVqa309NuGrM3qebjj62A2m3UiKUGSZLFYJEl2u12SVLtuE51LPi8AAADkTq4DvK+vj3x9feRps2nd6ih16PyKzl+4qNTUVCUnX8jvPmEwgYEVJUlhod1VvHgxjZ0wSZJ05MgxZ5gHAABAzuV6D3xKyiWlpFySzeYhSUpKOsrKKpwSE5Mk3fk+cTgczs8AAADIG/bAAwAAAAaS6y00AAAAAO4+VuABAAAAAyHAAwAAAAZCgAcAAAAMhAAPAAAAGAgBHgAAADAQAjwAAABgIAR4AAAAwEAI8AAAAICBEOABAAAAAyHAAwAAAAZCgAcAAAAMhACfC7NnTFKN6tXc3QYAAADuQQR4AAAAwEAI8AAAAICBEOABAAAAAyHAAwAAAAZCgAcAAAAMhAAPAAAAGAgBHgAAADAQAjwAAABgIAR4AAAAwEAI8AAAAICBEOABAAAAAzH5+Qc53N0EAAAAgOxhBR4AAAAwEAI8AAAAYCAEeAAAAMBACPAAAACAgRDgAQAAAAMhwAMAAAAGQoAHAAAADIQADwAAABgIAR4AAAAwEAJ8NlUPflT7E7bKarU6j/UO7a6Fc6e6sSsAAADcawjw2RSfsFfJyef1VKP6zmNtWjVXRGS0G7sCAADAvYYAnwOLIpapQ9tWkqSA8uXkX7aMvlu/yc1dAQAA4F5CgM+BqOhVahjypIoWvV9tWjXXsugVysjIcHdbAAAAuIcQ4HPgcmqqNn4foxbPP6vWbJ8BAACAGxDgc2hRxDL179dbV69eVWJikrvbAQAAwD2GAJ9DW2K3S5IWL4lycycAAAC4F5n8/IMc7m4CAAAAQPawAg8AAAAYCAEeAAAAMBACPAAAAGAgBHgAAADAQAjwAAAAgIEQ4AEAAAADIcADAAAABkKABwAAAAyEAA8AAAAYCAEeAAAAMBACPAAAAGAgBHgAAADAQPIc4K1WqyIXzZKPt1d+9IMCpnPHdgrr1cPdbQAAABQY1rxOYDabFNKgnmw2W370gwKmQkA5+fh4u7sNAACAAoMtNAAAAICBmPz8gxy5KRw8qJ8G9AuTyWSSxWKR3W6Xw+FQRGS0hgwdoS6d2mvUyGEuNd179lHM5lhJ0s7YjSpR0tc5tjt+j9p26CZJeap9sEKANq772qV2yrTZGjs+XJIUPnGMWrZo5jJeqUptpaffNmRtVs/DHV8Hs9msE0kJkiSLxSJJstvtkqTadZvoXPJ5AQAAIHdyHeB9fX3k6+sjT5tN61ZHqUPnV3T+wkWlpqYqOflCfvcJgwkMrChJCgvtruLFi2nshEmSpCNHjjnDPAAAAHIu13vgU1IuKSXlkmw2D0lSUtJRVlbhlJiYJOnO94nD4XB+BgAAQN6wBx4AAAAwkFxvoQEAAABw97ECDwAAABgIAR4AAAAwEAI8AAAAYCAEeAAAAMBACPAAAACAgRDgAQAAAAMhwAMAAAAGQoAHAAAADIQADwAAABgIAR4AAAAwEAI8AAAAYCD5EuAT4mJydP6L7Vsr6eAu+fp4O48tXTxbXV96MT/akST1Du2usmVK57iuZYtm+umHNUrcv1Mzp32uEiV8862nrGTV87tvv6Gxoz/M12tWD35U365YoqOHftbm71fruWeb5uv8oT27qu9rofk6JwAAwL3MbSvwRYoUVr++vZyfTSZTvs4f1quH/MuWyVFN7Vo1NGbUCA0b/pEaP9NKKSm/aebUz/O1r7+TVc8LFi/VtBlz8vWas2dM0opVaxRcK0SfjPtMX34xXkWKFM7XawAAACD/uC3Anz2XrC4d26tUqZJ/Od6jWxdt/2m9Dh+I079GDJXVapUkBVV6WIn7d6pyUKAk6YEHSmpffKyebtpIkvSvEUOVEBcjv1IPaNaMcCXExWjh3KnZ6qlXz26aOn2OfojZolOnz+i94R+p4kMVVO3RKpKkXdu/V+1aNZznT5/ymcvqcr0n6mjd6igdPfSzFs2f7rJ6X6xYUX05abwO7NmqhLgYDR82xPlDS1Y9R0XO09mTB7VjywYN7P/an/p+pHIlrf1muY4fTtCGtV8puFoV59jsGZM0aEAfRS+br6OHflZU5Dw98MCdZ242m/XP3v01a85CXb16TavXbpDFbNYDJf/6awIAAAD3c1uAT04+r+XRKzXw9Vclua7At36hufr1CdVL3XvrifpPK7haVfV5tack6ZdDh/XJ+M/1xedjZbN5aOL4UVr1zRqt3/CDJGn4h6MVXCtE55LP65+9+iu4Vohe7vFqtnoKrlZVcXG7nZ8zMjK0d/9BZ4D/O+XKldW82V9q3KeTVCW4no4cOaYvPvvEOT7kzf7y8PBQzccb67mWL6pp44Z6sUPrbPXcvlMPlQmoogmfTf7TdYsUKazIRbM0f+ESBVWto2kz5ipi4UwVK1bUeU7z55/RoMHD9Ohj9XX9epr69+0tScrMzNTu+D2y2+2SpB7dOivx8BEdP3EyW88LAAAAd5/bArzD4dBnk6aqbeuWf9o20q1rR02aPF1JR44p5dJvCp88Xa1faO4cnzVnoc4ln9eqryJUtkxpfThybL70VOT+Ikq7keZy7Nq167q/SJEsa19s31qbvo/R+g0/6MbNm/pk/OdqUL+uvIoXlyTdvHlThQsXUglfH505e06t2r6kNWs3ZKsvh8OhzMxMOTIdfxp79unGOnX6jBYvWa6bt25pWdQKHUpMctnLvjxqhY6fOKnr19O0eu16PVK50p/madu6hfq8+k+Fhg2Qw/Hn6wAAAOB/g9WdF79w4aIWLl6qQQP7uKzAVwgor3eGDNSgAX0kSVYPD1nMrj9rjJswSWtWLdXrA9/WzVu38qWftOtpKnRfIZdjRYoU1rXr17OsrRBQXk2bNHT5hV6TyaTSpf10OTVVYyeE6/U+vbVk0UyZTCYtj1qpz7+Ylueey5QprZMnT7kcO378pMsPRX/M4+np6bLZPFzOv8/TU5+OG6UX2nZh9R0AAOB/nNsC/O+rvJOnzFRszHe6eu2ac+zs2XNaFLFc363f9KfzpTt7tz94/22tXbdRbw16XWvXbdS1a64hOzMzU2ZLzv6DIWHvftWsWV3bdsRJkiwWix6tUlmjP5koSbp+PU02m+0va8+ePadV33ynj8ZMcDn+22+XJUkPPVhBU6bP0YTPJiugfDlN+WK8bt66pS+nzspTz2fOnFWzZxq7HCvnX9Z5D9lhMpn0/gejtHffgRxdGwAAAHef298Df+m3y5o1d6HL6xMjIqPU+5/dVLxYUV2+nKrgalX1YrtWzvE3+r8mk8mknr1e15at2//y1Yq//npaTzWsL6vV+v/9Rdn/a9bsBXotrKfqPVFHvr4++teIoTp85Kgz2O4/cFD1n3xCkuRftozLL7Quj16pZ59trCqPBOnSpd9UwtdHA19/1fmDx4hhQ/TeO4Nks3noYkqKLqdekdVqyVbPJpNJZrNZJvOdv3//I0nrNnyv8uXLqV2blrJYLGrZ/Fk98kglfffdJmXX7YwMnTmbzNYZAAAAA3DrHvjfTZ0+R5dTU52fFyxaqojIaC2aN12H9m3X63166cfNsZLuvOqxd2h39R/0jhwOh97/4GPVeqy6Xmzf2mX+kR+PV/Pnn9GxxN2aP3tKtnratiNO748YpfFj/6Vd/6+9+w+SurzvAP7evWUPQRHuNNIoBqwiib+IkXRiIrF1pkmjRkUZxEYRCmKEqkVrxoytzVjHlOiYQlCj0Zi0hhCFmqSxCQlNi5FE0QiIGuEQtVI9EKcEwQoc2z+YXHI1huO4sHyP12tmh9n97vPsm737430Pnz1+9uNc9KkxmTvvu+3Xb5r+xZw68sP5yX/8W274u8/miZ8vab/2i+dW5tIpV+W6a6/KymcW5647/jGPLn4i27dvT5JcedVnc8ghB+fnj/1nHn3kR3nllVdz511f61TmB755b9a88HSuunJKRp19Rta88HS+9505SZKNG9/I2E9NzPhxF+TZZT/LZZf+Rf78oskd3s+dGXTYofnizTdmQP/+nV4DAEB9lAYOGrbbx65LH1+YE04a2R159iojTzk5d952a67+zN/kXx+aX+84hTRxwoVpbGzMrNu/Uu8oAAA9Ql0/xLq3W/jwopx5zti8vOaVekcBAIAkCvxOrWx5vt4RAACgXbeM0AAAAHtG3X8LDQAA0HkKPAAAFIgCDwAABaLAAwBAgSjwAABQIAo8AAAUiAIPAAAFosADAECB7HaBr1QqmXPf3Wka0L878tDDjB1zbiZPurjeMQAAeozK7m5QLpcy8pSTU61WuyMPPcyQwYenqWlAvWMAAPQYRmgAAKBASgMHDat1ZeHV06bmiqmTUyqV0tDQkLa2ttRqtcyeMy/XXHt9Ljj/vNx4w3Ud1oybcFkWPrwoSbJ40YIcdHBz+7UnlyzLqNEXJclurT1iyOAsmP9gh7W3f/meTL95RpJkxq2fz5lnfLzD9aOPGZEtW7YWcu3O3o96fB3K5XJebFmaJGloaEiStLW1JUlGfOi0vNq6NgAAdE2XC3xzc1Oam5vSWK1m/kNzM3rs+Kxd91o2bNiQ1tZ13Z2Tghk69MgkyeSJ43Lggf0y/ZaZSZJVq1a3l3kAAHZdl2fg169/PevXv55qtVeSpKXleSertFuxoiXJju+TWq3Wfh8AgN1jBh4AAAqkyyM0AADAnucEHgAACkSBBwCAAlHgAQCgQBR4AAAoEAUeAAAKRIEHAIACUeABAKBAFHgAACgQBR4AAApEgQcAgAJR4AEAoEAU+C64566Zef/w4+sdAwCAfZACDwAABaLAAwBAgSjwAABQIAo8AAAUiAIPAAAFosADAECBKPAAAFAgCjwAABSIAg8AAAWiwAMAQIEo8AAAUCClgYOG1eodAgAA6Bwn8AAAUCAKPAAAFIgCDwAABaLAAwBAgSjwAABQIAo8AAAUiAIPAAAFosADAECBKPAAAFAgCnwnDT/huDy99KepVCrtj10ycVz++d476pgKAIB9jQLfSUuWPpXW1rX541M/0v7YOWedntlz5tUxFQAA+xoFfhfcN/v+jB51VpJk8HsOz6DDDs0PfvjvdU4FAMC+RIHfBXPnfTcfHfnhHHDA/jnnrNNz/7xvZ9u2bfWOBQDAPkSB3wX/s2FDFvx4Yc74xMdytvEZAADqQIHfRffNvj+XT70kGzduzIoVLfWOAwDAPkaB30WPLHo0SfKNb86tcxIAAPZFpYGDhtXqHQIAAOgcJ/AAAFAgCjwAABSIAg8AAAWiwAMAQIEo8AAAUCAKPAAAFIgCDwAABaLAAwBAgSjwAABQIAo8AAAUiAIPAAAFstsFvlKpZM59d6dpQP/uyEMPM3bMuZk86eJ6xwAA6DEqu7tBuVzKyFNOTrVa7Y489DBDBh+epqYB9Y4BANBjGKEBAIACKQ0cNKzWlYVXT5uaK6ZOTqlUSkNDQ9ra2lKr1TJ7zrxcc+31ueD883LjDdd1WDNuwmVZ+PCiJMniRQty0MHN7deeXLIso0ZflCS7tfaIIYOzYP6DHdbe/uV7Mv3mGUmSGbd+Pmee8fEO148+ZkS2bNlayLU7ez/q8XUol8t5sWVpkqShoSFJ0tbWliQZ8aHT8mrr2gAA0DVdLvDNzU1pbm5KY7Wa+Q/Nzeix47N23WvZsGFDWlvXdXdOCmbo0COTJJMnjsuBB/bL9FtmJklWrVrdXuYBANh1XZ6BX7/+9axf/3qq1V5JkpaW552s0m7FipYkO75ParVa+30AAHaPGXgAACiQLo/QAAAAe54TeAAAKBAFHgAACkSBBwCAAlHgAQCgQBR4AAAoEAUeAAAKRIEHAIACUeABAKBAFHgAACgQBR4AAAqkRxT4Xzz1aI4/7ph6xwAAgN+7binwSx9fuEvPf897BuWVl5592+20P/lod8T5nQb07587vnRLnlv+WBYt/H7OG/XJXd7js5/5q0y/6XO/h3Q9z8QJF2bKpyfWOwYAQI9RqeeL/8Hh793jrzlr5heybt1rOe1jZ2fw4MNz24wvZO2617Lw4UWd3uOfvvGtVHv1+j2mwcNoRAAABflJREFUBACA326vHKG5566ZmXbFZZl3/9fz/HM/z9w5X8u73nVw+/XhJxyXh3/8UJ5b/lim3/S5VCqd+zlk6FF/mJNOHJ5rrr0+L6/57/zkkZ9lxqw7M3H8hUmSsWPOzZz77v7184cemdUrl7Tfnzvna3nlpWfz2CM/ypWXf7rD3p++ZHxWr1zSfnt59fI8s+ynu/M2AADA2+yVBT5JTv/En2ba1dfluBM/kk2bNufyKZckSarVXrn3K7Mye87cnPhHp+bxJ55Mnz77dWrPE44/Nk8tfyZvvbWl/bEnlzzV6fn5886/OIcOPia3fHHW267dfudXM+So4Rly1PB84IOnpnXtuky/eWan9gUAgM6qa4H/zfn33zz5TpIH5n47L7z4UjZt2pyHvv/DvO+9RydJPjjiA9m6bWtuu+PubNq0Od964MH88pcbO/V6ffv2zebNmzs89samTdl//76dWl+r1bJ9+/bUttfe8TmlUimzZt6cRx97Ivd+/Rud2hcAADprr52Br/1GR96yZUuq1R0z5wMPeVf+6+U1XXq9zZs3Z7/9Op7W9+3TJ2+8salL+/020664LO8eeEgmTPrLbtsTAAB+Za8doXknr7auzWHvfneX1i596ukcd+z72n8YSJLhJxybpcuWJ0k2bd6camO1y9lGnnJyJk+6OBMvvSJvvvlml/cBAIB3UrgC/9jiJ9Kr2iuTJ12cAw7YP2PHnJt+/Q7o1NrnnluZpcuW56a//9scdFBzTvrA8Fw+ZXLuuufrSZJnnvlFhh19VJoG9E+SnHPW6R3Wl0qllMvllMo7/vzVLdnxLwO3zfhC/vra67Oy5flu/BsDAMCv7TUz8K+89Gw+eeaf7XTNli1bM37i1IwZfU4WL1qQE99/fF5tXdvp17x0yrT069cvP134g3xr9lfzy40b8+SSZUmSllWrc8edX80Pv/8v+cH3HsjmzR1P0R/45r1Z88LTuerKKRl19hlZ88LT+d535iRJLvzUmDQ3N+WWf7ghLc8+0X47YsjgTmcDAICdKQ0cNOydP5HZSUsfX5gTThrZHXn2qN6NjfnSjOkZdNih+cQnx6Stra3ekXqciRMuTGNjY2bd/pV6RwEA6BHq+iHWevvft97KpEuvzLHHvFd5BwCgEAo3A9/darVanlr+TL1jAABAp3TLCA0AALBn7PMn8AAAUCQKPAAAFIgCDwAABaLAAwBAgSjwAABQIAo8AAAUiAIPAAAFosADAECB7HaBr1QqmXPf3Wka0L878tDDjB1zbiZPurjeMQAAeozK7m5QLpcy8pSTU61WuyMPPcyQwYenqWlAvWMAAPQYRmgAAKBASgMHDat1ZeHV06bmiqmTUyqV0tDQkLa2ttRqtcyeMy/XXHt9Ljj/vNx4w3Ud1oybcFkWPrwoSbJ40YIcdHBz+7UnlyzLqNEXJclurT1iyOAsmP9gh7W3f/meTL95RpJkxq2fz5lnfLzD9aOPGZEtW7YWcu3O3o96fB3K5XJebFmaJGloaEiStLW1JUlGfOi0vNq6NgAAdE2XC3xzc1Oam5vSWK1m/kNzM3rs+Kxd91o2bNiQ1tZ13Z2Tghk69MgkyeSJ43Lggf0y/ZaZSZJVq1a3l3kAAHZdl2fg169/PevXv55qtVeSpKXleSertFuxoiXJju+TWq3Wfh8AgN1jBh4AAAqkyyM0AADAnucEHgAACkSBBwCAAlHgAQCgQBR4AAAokHKpVO8IAABAZ5RKSbmswAMAQCGUS0m5UjFFAwAARVCplFOuKvAAAFAI1Uo55UpD0qDDAwDAXq1cSioNSTkppXdjQ73zAAAAv8N+vRuSlHb8GslqpZzGXj7NCgAAe6PGXqX8avS9fXimT+9Kqr3M0gAAwN6k2qucPr0r7fc7NPa+vRvSu6rEAwDA3qB3tZy+vTuOu1f+/5P2a2xIr0opb761PdvaanssHAAAsEOloZT9Gsup/JbfNvO2Ar9jQTkH9CmnbXstb23dnm3batleq6WmzwMAQLcrlZJyqZRKpZTGXuU0/I7/bfX/AJAKWTF9dRxWAAAAAElFTkSuQmCC;" vertex="1" parent="1">
                    <mxGeometry x="40" y="20" width="752" height="582" as="geometry"/>
                </mxCell>
            </root>
        </mxGraphModel>
    </diagram>
</mxfile>